<?xml version="1.0" standalone="no"?>
<!DOCTYPE svg PUBLIC "-//W3C//DTD SVG 20010904//EN"
 "http://www.w3.org/TR/2001/REC-SVG-20010904/DTD/svg10.dtd">
<svg version="1.0" xmlns="http://www.w3.org/2000/svg"
 width="2688.000000pt" height="1327.000000pt" viewBox="0 0 2688.000000 1327.000000"
 preserveAspectRatio="xMidYMid meet">
<metadata>
Created by potrace 1.15, written by Peter Selinger 2001-2017
</metadata>
<g transform="translate(0.000000,1327.000000) scale(0.100000,-0.100000)"
fill="#000000" stroke="none">
<path d="M8110 9687 c-488 -243 -1005 -497 -1013 -497 -3 0 -73 -30 -154 -66
-399 -177 -1132 -464 -1358 -532 -38 -12 -153 -46 -255 -77 -102 -31 -230 -70
-285 -86 -279 -82 -487 -143 -645 -189 -96 -28 -223 -65 -283 -82 -125 -36
-122 -25 -47 -158 210 -373 350 -729 445 -1127 11 -49 21 -71 29 -66 6 4 54
35 106 68 52 34 142 85 200 115 168 85 393 230 815 524 152 106 214 146 224
146 10 0 37 -85 50 -163 18 -99 23 -364 12 -567 -14 -255 -44 -488 -101 -775
-126 -632 -165 -804 -336 -1489 -62 -253 -114 -462 -114 -464 0 -2 12 4 28 14
15 10 92 56 171 102 80 46 161 96 182 110 39 28 445 341 537 414 l53 42 -5 60
c-3 34 -8 210 -11 391 -16 968 -43 1827 -60 1935 -16 98 -53 277 -91 437 l-27
112 59 54 c33 30 122 109 199 177 77 67 154 135 170 149 79 69 830 725 900
786 44 38 82 72 85 75 3 3 95 84 205 179 110 95 232 201 270 236 75 66 197
174 363 318 56 49 102 91 102 93 0 9 -36 -8 -420 -199z"/>
<path d="M10740 9420 c-14 -9 -396 -156 -635 -245 -120 -45 -299 -115 -304
-120 -1 -2 26 -75 62 -162 227 -549 367 -1149 433 -1858 28 -305 29 -1124 1
-1462 -1 -12 2 -23 7 -25 9 -3 16 16 107 282 335 980 487 2106 419 3100 -5 74
-12 171 -14 215 -3 44 -11 126 -18 183 -12 106 -19 116 -58 92z"/>
<path d="M21870 8519 c-151 -4 -426 -8 -610 -9 -184 -2 -377 -5 -428 -8 l-93
-4 3 -57 3 -56 85 -7 c181 -15 270 -43 306 -100 39 -63 44 -128 44 -618 l0
-467 -627 -7 c-346 -4 -685 -9 -755 -12 l-127 -5 -3 343 c-3 383 4 613 21 674
33 122 129 171 361 187 l55 4 3 58 3 58 -298 -6 c-164 -4 -480 -10 -703 -13
-223 -4 -409 -10 -413 -14 -4 -4 -5 -30 -1 -57 l6 -50 97 -7 c220 -15 308 -69
331 -205 8 -47 10 -367 8 -1131 -4 -1184 1 -1110 -73 -1186 -48 -49 -114 -69
-267 -80 l-98 -7 0 -60 0 -60 208 7 c114 3 430 6 704 6 l496 0 4 51 c4 60 -2
72 -34 74 -248 16 -344 57 -384 162 -16 44 -18 97 -22 574 l-3 527 478 6 c263
3 603 8 756 12 l278 5 -4 -528 c-4 -604 -5 -611 -77 -675 -48 -43 -132 -66
-272 -75 -49 -3 -88 -10 -89 -14 -3 -39 -1 -98 4 -106 4 -6 17 -9 30 -8 13 2
327 6 698 10 371 4 676 9 678 11 2 1 4 27 5 57 l1 55 -122 4 c-115 5 -127 7
-190 39 -57 29 -71 41 -90 79 -44 89 -46 160 -39 1220 7 971 11 1084 40 1155
31 73 119 116 267 131 41 4 81 8 89 10 8 1 24 3 35 3 18 1 20 7 19 52 -1 28
-6 54 -11 58 -4 3 -132 3 -283 0z m-390 -1309 l0 -1170 -45 0 -45 0 2 1153 3
1152 35 17 c19 10 38 18 43 18 4 0 7 -526 7 -1170z"/>
<path d="M16934 8490 c-195 -25 -398 -133 -513 -275 -232 -286 -265 -670 -80
-955 104 -161 291 -282 527 -340 43 -11 199 -40 347 -65 392 -66 517 -105 640
-197 106 -81 176 -188 190 -292 15 -119 16 -173 5 -229 -14 -68 -56 -169 -86
-208 -80 -103 -217 -191 -349 -225 -87 -22 -287 -25 -360 -5 -187 50 -321 127
-450 256 -150 149 -262 324 -360 560 l-42 100 -72 3 -73 3 6 -113 c3 -62 5
-290 6 -505 l0 -393 63 0 c58 0 66 3 93 31 47 50 119 81 199 87 84 5 200 -21
435 -98 110 -36 183 -54 250 -61 418 -43 800 159 975 516 204 418 67 874 -332
1108 -128 76 -234 106 -548 158 -104 17 -208 35 -230 39 -22 4 -70 13 -106 19
-115 19 -257 59 -337 94 -186 80 -258 174 -270 348 -18 282 201 510 523 544
83 9 216 -9 315 -41 219 -73 435 -288 652 -649 l27 -45 71 0 c82 0 78 -12 59
155 -6 55 -25 228 -43 385 l-31 285 -74 3 c-51 2 -84 -2 -106 -12 -48 -23
-153 -46 -211 -46 -28 0 -89 7 -135 14 -248 43 -460 60 -575 46z m809 -1566
c155 -25 312 -127 392 -254 51 -80 67 -145 71 -277 4 -108 1 -131 -20 -199
-30 -92 -126 -243 -126 -196 0 4 6 16 14 27 28 41 56 156 56 233 0 99 -23 187
-75 292 -48 95 -109 169 -195 235 -63 49 -190 115 -257 136 -24 6 -43 16 -43
21 0 10 37 6 183 -18z"/>
<path d="M15779 8426 c-3 -3 -300 -8 -660 -12 -359 -3 -660 -7 -666 -10 -8 -2
-13 -23 -13 -57 l0 -54 110 -11 c196 -20 262 -54 290 -149 19 -63 28 -406 36
-1323 6 -792 5 -881 -10 -932 -29 -99 -112 -150 -268 -164 -135 -11 -128 -7
-128 -71 l0 -56 398 6 c218 4 524 7 680 7 l282 0 0 59 0 58 -92 7 c-135 10
-191 23 -238 57 -46 33 -75 87 -89 166 -5 26 -12 422 -15 878 -4 457 -9 873
-12 925 -7 114 12 372 31 416 33 81 121 118 330 142 l60 7 0 54 c0 48 -11 72
-26 57z m-625 -668 c4 -293 8 -807 9 -1142 l2 -610 -28 -1 c-16 -1 -30 3 -32
9 -5 15 -13 657 -22 1544 l-6 732 35 0 36 0 6 -532z"/>
<path d="M12449 8376 c-2 -2 -294 -7 -649 -11 -355 -4 -649 -10 -653 -12 -6
-3 -8 -100 -3 -104 1 0 35 -2 76 -5 250 -16 335 -57 367 -176 17 -62 29 -336
38 -858 3 -201 10 -565 15 -810 11 -530 7 -580 -56 -644 -54 -54 -97 -66 -336
-91 l-57 -6 4 -52 3 -52 344 3 c189 2 404 6 478 8 74 2 235 4 358 4 l222 0 0
61 c0 37 -4 58 -10 54 -5 -3 -56 -1 -112 5 -226 24 -291 66 -317 207 -6 27
-13 253 -17 502 l-7 451 127 0 c107 0 133 -3 170 -21 48 -22 183 -156 302
-299 611 -737 656 -784 839 -878 115 -59 155 -65 415 -63 129 1 235 3 237 4 1
2 -1 28 -4 60 -4 36 -10 57 -19 57 -24 0 -110 42 -175 85 -66 45 -174 152
-329 325 -47 52 -137 151 -200 220 -64 69 -160 177 -215 240 -55 63 -139 156
-187 205 -48 50 -87 95 -88 100 0 6 27 16 60 22 33 7 105 30 159 51 262 103
453 305 512 542 19 78 17 232 -5 304 -92 308 -356 505 -755 561 -95 14 -520
22 -532 11z m289 -132 c117 -24 195 -66 282 -154 126 -125 168 -232 177 -442
9 -197 -27 -334 -116 -445 -83 -103 -188 -161 -386 -210 -91 -23 -121 -25
-329 -27 l-229 -1 -2 25 c-2 14 -6 248 -10 520 -7 441 -6 502 9 558 37 145
126 190 384 191 94 1 169 -4 220 -15z m-858 -128 c0 -173 18 -1144 25 -1346 2
-85 5 -299 5 -475 l1 -320 -33 0 -33 0 -7 300 c-3 165 -11 570 -17 900 -6 330
-14 707 -17 838 l-7 237 42 0 41 0 0 -134z m821 -1279 c8 -4 76 -74 150 -154
124 -136 201 -225 457 -532 192 -230 382 -409 495 -467 26 -13 47 -27 47 -30
0 -7 -73 2 -145 18 -141 31 -320 174 -510 408 -344 424 -560 670 -640 730 -24
18 -43 36 -41 39 5 8 166 -3 187 -12z"/>
<path d="M9468 8323 c-22 -26 -245 -363 -310 -468 -226 -369 -419 -757 -563
-1130 -130 -339 -229 -651 -309 -975 -47 -189 -45 -180 -37 -180 4 0 20 33 35
73 16 39 83 182 150 316 l121 244 70 32 c139 65 206 96 273 126 37 17 110 50
162 74 79 37 384 173 428 192 9 4 12 -54 13 -268 2 -531 6 -587 69 -914 37
-194 89 -437 93 -442 3 -2 19 24 37 59 63 124 179 269 328 408 l99 94 -34 95
c-247 691 -402 1285 -507 1951 -35 217 -32 198 -63 477 -15 139 -31 253 -34
253 -3 0 -13 -8 -21 -17z m-69 -618 c2 -482 -40 -705 -146 -775 -21 -14 -85
-58 -143 -99 -58 -41 -161 -113 -230 -159 -69 -47 -138 -96 -154 -109 -16 -13
-30 -23 -31 -21 -9 9 72 269 143 459 40 107 172 401 222 494 15 28 58 108 95
180 38 71 101 184 140 250 39 66 75 129 80 140 15 34 23 -81 24 -360z"/>
<path d="M8160 8268 c-74 -33 -182 -80 -240 -105 -212 -92 -213 -93 -207 -111
3 -9 33 -96 66 -192 50 -145 161 -544 161 -580 0 -5 -107 -44 -237 -85 -131
-42 -318 -103 -416 -136 -97 -32 -181 -59 -185 -59 -5 0 -14 35 -20 78 -29
199 -36 345 -37 774 0 246 -3 444 -6 440 -3 -4 -27 -83 -53 -177 -26 -93 -54
-190 -61 -215 -53 -176 -125 -588 -150 -860 -3 -36 -13 -126 -23 -200 -17
-146 -23 -699 -9 -915 14 -207 29 -380 32 -384 2 -2 50 17 107 42 57 25 191
84 300 132 l196 87 -64 186 c-72 211 -131 434 -168 632 -51 277 -51 280 -5
261 13 -6 85 -24 159 -41 442 -101 710 -167 722 -178 26 -25 34 -658 13 -1022
l-5 -85 21 60 c70 205 159 559 203 800 27 150 68 465 85 660 28 304 23 839
-10 1095 -5 41 -10 94 -11 118 -1 23 -6 42 -12 41 -6 -1 -72 -28 -146 -61z"/>
<path d="M9746 4779 c-35 -28 -36 -80 -1 -114 40 -40 96 -32 121 17 41 79 -50
152 -120 97z"/>
<path d="M13210 4775 c0 -22 4 -25 35 -25 l35 0 0 -275 0 -275 -30 0 c-25 0
-30 -4 -30 -25 l0 -25 130 0 130 0 0 25 c0 20 -5 25 -25 25 l-25 0 0 120 c0
134 13 183 54 201 13 6 36 9 50 5 35 -9 46 -55 46 -203 l0 -123 -30 0 c-25 0
-30 -4 -30 -25 l0 -25 135 0 135 0 0 25 c0 21 -5 25 -29 25 l-29 0 -4 148 c-4
164 -14 198 -71 232 -56 35 -155 24 -204 -22 l-23 -21 0 131 0 132 -110 0
-110 0 0 -25z"/>
<path d="M14102 4777 c-30 -32 -29 -87 1 -115 50 -47 137 -10 137 58 0 69 -91
107 -138 57z"/>
<path d="M14540 4775 c0 -21 5 -25 30 -25 l30 0 0 -275 0 -275 -30 0 c-25 0
-30 -4 -30 -25 l0 -25 135 0 135 0 0 25 c0 21 -5 25 -30 25 l-30 0 0 300 0
300 -105 0 -105 0 0 -25z"/>
<path d="M15050 4775 c0 -21 5 -25 30 -25 l30 0 0 -275 0 -275 -30 0 c-25 0
-30 -4 -30 -25 l0 -25 135 0 135 0 0 25 c0 21 -5 25 -30 25 l-30 0 0 300 0
300 -105 0 -105 0 0 -25z"/>
<path d="M7008 4766 c-62 -18 -110 -49 -152 -98 -47 -54 -66 -115 -66 -208 0
-93 19 -154 66 -209 68 -79 172 -117 295 -109 98 7 155 39 197 108 42 70 41
80 -5 80 -35 0 -40 -4 -63 -47 -32 -59 -66 -84 -123 -90 -63 -7 -126 24 -155
76 -49 87 -49 295 0 382 71 126 272 91 303 -53 5 -23 12 -28 36 -28 l29 0 0
80 0 79 -67 22 c-85 26 -229 34 -295 15z"/>
<path d="M16275 4767 c-97 -33 -153 -81 -193 -167 -22 -46 -26 -70 -26 -140 0
-70 4 -94 26 -140 52 -112 145 -171 283 -178 150 -8 233 37 280 151 l15 37
-45 0 c-42 0 -46 -2 -60 -37 -32 -77 -95 -111 -177 -98 -95 16 -138 99 -138
265 0 166 43 249 138 265 85 14 156 -28 188 -111 14 -38 21 -44 46 -44 l29 0
-3 82 -3 82 -60 19 c-77 25 -244 32 -300 14z"/>
<path d="M18885 4767 c-97 -33 -153 -81 -193 -167 -37 -78 -37 -201 -1 -280
32 -70 79 -116 149 -149 48 -23 68 -26 160 -26 93 0 110 3 150 25 47 26 95 87
106 133 6 26 5 27 -35 27 -38 0 -42 -3 -56 -37 -32 -77 -95 -111 -177 -98 -95
16 -138 99 -138 265 0 166 43 249 138 265 85 14 156 -28 188 -111 14 -38 21
-44 46 -44 l29 0 -3 82 -3 82 -60 19 c-77 25 -244 32 -300 14z"/>
<path d="M19733 4761 c-130 -45 -197 -147 -197 -301 0 -214 129 -329 358 -318
110 5 167 28 228 91 58 60 83 129 82 234 0 74 -4 89 -35 150 -40 78 -94 125
-171 148 -70 21 -200 19 -265 -4z m213 -56 c14 -9 36 -38 47 -63 19 -41 22
-65 22 -187 0 -126 -2 -144 -23 -182 -29 -56 -65 -78 -122 -78 -57 0 -93 22
-122 78 -21 38 -23 56 -23 182 0 129 2 144 25 190 41 81 125 107 196 60z"/>
<path d="M20470 4745 c0 -22 4 -25 40 -25 l40 0 0 -260 0 -260 -40 0 c-36 0
-40 -2 -40 -25 l0 -25 160 0 160 0 0 25 c0 23 -4 25 -40 25 l-40 0 0 115 c0
107 1 115 20 115 48 0 69 -23 137 -151 l68 -129 101 0 c100 0 102 0 106 25 5
23 2 25 -28 25 -32 0 -36 4 -75 83 -52 103 -74 134 -111 157 l-29 18 34 6 c70
13 117 73 117 147 0 60 -32 106 -94 135 -49 23 -61 24 -268 24 l-218 0 0 -25z
m350 -43 c19 -9 40 -28 47 -42 18 -35 16 -101 -3 -129 -21 -29 -72 -51 -119
-51 l-35 0 0 120 0 120 38 0 c20 0 53 -8 72 -18z"/>
<path d="M21370 4745 c0 -22 4 -25 40 -25 l40 0 0 -260 0 -260 -40 0 c-36 0
-40 -2 -40 -25 l0 -25 160 0 160 0 0 25 c0 23 -4 25 -40 25 l-40 0 0 122 0
123 28 -30 c16 -17 77 -83 137 -147 l108 -118 109 0 c108 0 108 0 108 24 0 21
-5 25 -34 28 -29 3 -53 24 -180 162 -80 88 -146 162 -145 165 0 3 49 48 108
99 99 84 112 92 150 92 37 0 41 2 41 25 l0 25 -120 0 -120 0 0 -24 c0 -20 6
-25 31 -28 29 -3 28 -5 -68 -88 -53 -47 -110 -96 -125 -108 l-28 -24 0 111 0
111 40 0 c36 0 40 3 40 25 l0 25 -160 0 -160 0 0 -25z"/>
<path d="M11010 4660 l0 -70 -30 0 c-25 0 -30 -4 -30 -25 0 -21 5 -25 30 -25
l30 0 1 -147 c0 -87 5 -162 12 -183 16 -46 63 -70 140 -70 79 0 124 20 142 64
21 50 19 56 -20 56 -30 0 -35 -3 -35 -23 0 -50 -63 -67 -80 -21 -6 14 -10 93
-10 175 l0 149 60 0 c57 0 60 1 60 25 0 24 -3 25 -60 25 l-60 0 0 70 0 70 -75
0 -75 0 0 -70z"/>
<path d="M7745 4587 l-50 -12 -3 -53 c-3 -49 -2 -52 20 -52 16 0 27 9 36 28
14 33 49 52 92 52 61 0 100 -37 100 -94 0 -23 -4 -24 -88 -28 -96 -4 -139 -21
-175 -69 -24 -33 -26 -112 -4 -156 39 -74 175 -83 249 -16 17 15 18 14 18 -10
l0 -27 105 0 105 0 0 25 c0 21 -5 25 -30 25 l-30 0 0 133 c0 162 -14 203 -82
238 -52 27 -185 35 -263 16z m195 -267 c0 -51 -4 -65 -25 -85 -44 -45 -101
-27 -111 35 -11 72 21 108 99 109 l37 1 0 -60z"/>
<path d="M8674 4586 c-17 -7 -40 -26 -52 -41 l-22 -28 0 37 0 36 -110 0 -110
0 0 -25 c0 -22 4 -25 35 -25 l35 0 0 -170 0 -170 -30 0 c-25 0 -30 -4 -30 -25
l0 -25 145 0 145 0 0 25 c0 23 -4 25 -41 25 l-41 0 3 128 c4 114 6 130 27 159
40 56 115 57 134 3 7 -22 16 -30 34 -30 24 0 25 2 22 68 l-3 67 -55 2 c-30 2
-69 -3 -86 -11z"/>
<path d="M9314 4586 c-17 -7 -40 -26 -52 -41 l-22 -28 0 37 0 36 -110 0 -110
0 0 -25 c0 -22 4 -25 35 -25 l35 0 0 -170 0 -170 -30 0 c-25 0 -30 -4 -30 -25
l0 -25 145 0 145 0 0 25 c0 23 -4 25 -40 25 l-40 0 0 113 c0 97 3 119 23 157
24 49 57 67 101 56 18 -4 31 -17 38 -36 7 -22 16 -30 34 -30 24 0 25 2 22 68
l-3 67 -55 2 c-30 2 -69 -3 -86 -11z"/>
<path d="M10292 4579 c-82 -41 -124 -150 -102 -266 21 -117 98 -179 210 -171
45 3 66 10 85 28 l25 23 0 -52 c0 -69 -20 -106 -66 -121 -71 -24 -164 11 -164
62 0 13 -7 18 -25 18 -25 0 -26 -2 -23 -57 l3 -58 55 -13 c125 -29 268 -3 327
60 39 41 43 71 43 294 l0 214 35 0 c31 0 35 3 35 25 l0 25 -110 0 c-106 0
-110 -1 -110 -22 l0 -21 -25 23 c-37 35 -134 39 -193 9z m171 -48 c34 -13 47
-58 47 -163 0 -111 -16 -153 -59 -163 -67 -15 -101 41 -101 165 0 82 15 135
43 155 25 17 37 18 70 6z"/>
<path d="M12604 4583 c-80 -35 -118 -80 -134 -159 -33 -159 71 -284 237 -284
161 0 252 82 253 228 0 146 -78 222 -235 229 -60 2 -90 -1 -121 -14z m155 -50
c31 -26 47 -139 33 -235 -12 -78 -33 -108 -76 -108 -58 0 -86 56 -86 175 1
126 28 185 85 185 13 0 32 -8 44 -17z"/>
<path d="M17078 4590 c-52 -16 -98 -52 -125 -98 -24 -40 -28 -58 -28 -122 0
-64 4 -82 28 -122 40 -69 98 -100 197 -106 127 -7 207 32 254 125 18 36 22
156 6 197 -17 45 -79 104 -127 120 -49 17 -159 20 -205 6z m125 -49 c37 -14
50 -61 50 -175 0 -114 -16 -161 -57 -172 -62 -15 -94 24 -103 124 -8 101 4
180 32 208 26 26 41 29 78 15z"/>
<path d="M9670 4565 c0 -21 5 -25 30 -25 l30 0 0 -170 0 -170 -30 0 c-25 0
-30 -4 -30 -25 l0 -25 135 0 135 0 0 25 c0 21 -5 25 -30 25 l-30 0 0 195 0
195 -105 0 -105 0 0 -25z"/>
<path d="M11500 4565 c0 -20 5 -25 24 -25 26 0 37 -24 120 -277 l38 -113 52 0
52 0 45 130 c24 71 47 126 50 122 4 -4 26 -62 49 -129 l43 -123 51 0 51 0 66
193 c62 181 67 192 92 195 21 3 27 9 27 28 0 24 -2 24 -85 24 -84 0 -85 0 -85
-25 0 -21 5 -25 31 -25 21 0 29 -4 26 -12 -3 -7 -20 -56 -37 -108 -18 -52 -36
-98 -39 -103 -4 -4 -15 19 -25 50 -10 32 -32 95 -48 141 l-30 83 -46 -3 -45
-3 -47 -139 c-35 -106 -48 -135 -54 -120 -5 10 -23 63 -41 117 l-34 97 25 0
c19 0 24 5 24 25 l0 25 -125 0 -125 0 0 -25z"/>
<path d="M14030 4565 c0 -21 5 -25 30 -25 l30 0 0 -170 0 -170 -30 0 c-25 0
-30 -4 -30 -25 l0 -25 135 0 135 0 0 25 c0 21 -5 25 -30 25 l-30 0 0 195 0
195 -105 0 -105 0 0 -25z"/>
<path d="M17742 4277 c-30 -32 -29 -87 1 -115 50 -47 137 -10 137 58 0 69 -91
107 -138 57z"/>
</g>
</svg>
