<?xml version="1.0" standalone="no"?>
<!DOCTYPE svg PUBLIC "-//W3C//DTD SVG 20010904//EN"
 "http://www.w3.org/TR/2001/REC-SVG-20010904/DTD/svg10.dtd">
<svg version="1.0" xmlns="http://www.w3.org/2000/svg"
 width="2688.000000pt" height="1327.000000pt" viewBox="0 0 2688.000000 1327.000000"
 preserveAspectRatio="xMidYMid meet">
<metadata>
Created by potrace 1.15, written by Peter Selinger 2001-2017
</metadata>
<g transform="translate(0.000000,1327.000000) scale(0.100000,-0.100000)"
fill="#000000" stroke="none">
<path d="M8110 9717 c-488 -243 -1005 -497 -1013 -497 -3 0 -73 -30 -154 -66
-397 -176 -1134 -465 -1358 -532 -38 -12 -131 -40 -205 -62 -74 -23 -155 -48
-180 -55 -185 -55 -505 -149 -715 -210 -509 -148 -476 -137 -469 -160 3 -11
28 -58 54 -105 197 -350 342 -711 430 -1067 22 -90 36 -130 44 -126 6 4 54 35
106 68 52 34 142 85 200 115 174 88 355 205 897 579 72 50 135 91 140 91 11 0
37 -82 55 -170 16 -83 15 -592 -1 -740 -17 -156 -49 -366 -77 -514 -13 -72
-29 -156 -34 -186 -45 -255 -167 -789 -325 -1421 -58 -232 -105 -424 -105
-427 0 -2 12 4 28 14 15 10 92 56 171 102 80 46 161 96 182 110 39 28 445 341
537 414 l53 42 -5 60 c-3 34 -8 210 -11 391 -16 984 -42 1825 -60 1935 -15 88
-44 228 -90 432 l-26 118 58 53 c32 30 121 109 198 177 77 67 154 135 170 149
46 41 751 656 825 720 35 31 82 72 105 92 22 19 56 49 75 66 19 16 78 68 130
114 52 46 142 125 200 174 57 50 125 109 150 131 43 40 114 101 338 297 56 49
102 91 102 93 0 9 -36 -8 -420 -199z"/>
<path d="M10740 9450 c-13 -9 -371 -147 -635 -245 -121 -45 -299 -115 -304
-120 -1 -2 26 -75 62 -162 185 -446 328 -991 392 -1493 8 -69 18 -141 20 -160
47 -349 58 -1228 22 -1667 -4 -46 17 -26 39 37 103 298 128 373 167 505 244
810 373 1801 338 2603 -7 147 -14 281 -16 297 -2 17 -7 73 -10 125 -3 52 -10
139 -17 193 -12 100 -19 111 -58 87z"/>
<path d="M21870 8550 c-146 -4 -418 -9 -605 -10 -187 -2 -382 -5 -432 -8 l-93
-4 0 -54 c0 -62 -5 -59 120 -69 93 -8 194 -30 229 -51 39 -23 68 -74 80 -140
7 -36 11 -235 11 -525 l0 -466 -622 -7 c-343 -4 -683 -9 -755 -12 l-132 -5 -3
343 c-3 380 4 612 21 674 33 122 128 171 361 187 l55 4 3 58 3 58 -293 -6
c-161 -4 -477 -10 -703 -13 -225 -4 -414 -10 -418 -14 -4 -4 -5 -30 -1 -57 l6
-50 97 -7 c196 -13 286 -58 323 -163 10 -31 13 -244 13 -1128 0 -1218 4 -1155
-69 -1230 -49 -50 -115 -70 -268 -81 l-98 -7 0 -60 0 -60 208 7 c114 3 430 6
704 6 l496 0 4 51 c4 60 -2 72 -34 74 -248 16 -344 57 -384 162 -16 44 -18 97
-22 574 l-3 527 468 6 c257 3 598 8 756 12 l288 5 -4 -528 c-4 -604 -5 -611
-77 -675 -48 -43 -132 -66 -272 -75 l-86 -6 -4 -56 c-4 -61 1 -69 37 -66 13 2
326 6 697 10 370 4 676 10 679 14 3 3 4 29 1 57 l-4 51 -117 5 c-100 4 -126 9
-176 32 -95 43 -118 81 -136 227 -17 143 -3 2056 16 2158 22 113 52 149 152
180 33 11 108 25 165 31 56 6 105 13 107 16 2 2 4 23 4 47 0 44 -8 69 -21 65
-4 -1 -126 -5 -272 -8z m-390 -1320 l0 -1170 -45 0 -45 0 0 1163 c0 640 3
1167 7 1170 3 4 24 7 45 7 l38 0 0 -1170z"/>
<path d="M16938 8520 c-200 -25 -400 -131 -517 -275 -232 -286 -265 -670 -80
-955 76 -118 195 -214 348 -280 109 -47 203 -70 471 -114 405 -67 551 -109
673 -192 137 -94 191 -184 215 -355 13 -92 13 -121 3 -177 -13 -70 -55 -172
-87 -213 -80 -103 -217 -191 -349 -225 -87 -22 -287 -25 -360 -5 -187 50 -321
127 -450 256 -150 149 -262 324 -360 560 l-42 100 -72 3 -73 3 6 -113 c3 -62
5 -290 6 -505 l0 -393 63 0 c58 0 66 3 93 31 70 74 190 104 316 79 74 -14 214
-53 283 -79 28 -10 93 -31 145 -47 87 -25 108 -28 250 -27 165 1 234 12 358
59 208 78 392 239 494 432 190 355 116 787 -176 1035 -166 141 -308 195 -661
252 -170 27 -175 28 -413 76 -329 65 -483 154 -539 311 -21 58 -28 183 -14
248 57 266 338 445 648 412 241 -25 417 -131 617 -372 66 -79 163 -220 212
-307 l29 -53 73 0 c71 0 72 0 72 27 0 24 -25 264 -69 648 l-17 150 -73 3 c-51
2 -84 -2 -106 -12 -68 -32 -166 -48 -259 -41 -50 3 -93 8 -96 10 -14 8 -302
44 -395 48 -55 3 -130 2 -167 -3z m805 -1566 c197 -32 376 -175 439 -352 14
-39 22 -93 25 -174 5 -107 3 -124 -20 -200 -16 -50 -43 -108 -68 -143 -50 -73
-48 -70 -55 -62 -4 4 0 17 9 30 8 13 25 54 36 91 60 193 -10 437 -172 600 -93
94 -219 172 -334 206 -24 7 -43 17 -43 22 0 10 37 6 183 -18z"/>
<path d="M15545 8450 c-132 -3 -431 -6 -664 -8 -233 -1 -428 -5 -432 -8 -5 -3
-9 -29 -9 -58 l0 -53 110 -11 c223 -23 272 -54 299 -192 7 -35 15 -427 23
-1096 10 -855 9 -1052 -1 -1100 -25 -109 -116 -169 -276 -181 -130 -9 -125 -6
-125 -70 l0 -56 388 6 c213 4 519 7 680 7 l292 0 0 59 0 58 -97 7 c-135 10
-185 22 -233 57 -46 33 -75 87 -89 166 -5 26 -12 417 -15 868 -4 451 -9 867
-12 925 -7 124 12 380 31 426 33 81 121 118 330 142 l60 7 0 54 c0 30 -4 55
-10 55 -5 1 -118 -1 -250 -4z m-391 -662 c4 -293 8 -807 9 -1142 l2 -609 -29
-1 c-15 -1 -30 3 -31 9 -4 13 -13 657 -22 1553 l-6 722 35 0 36 0 6 -532z"/>
<path d="M12449 8406 c-2 -2 -294 -7 -649 -11 -355 -4 -649 -10 -653 -12 -6
-3 -8 -100 -3 -104 1 0 35 -2 76 -5 250 -16 335 -57 367 -176 17 -63 29 -331
38 -853 3 -203 10 -570 15 -815 11 -530 7 -580 -56 -644 -54 -54 -97 -66 -336
-91 l-57 -6 4 -52 3 -52 354 3 c194 2 409 6 478 8 69 2 225 3 348 4 l222 0 0
58 0 57 -76 3 c-148 6 -272 41 -316 88 -50 56 -56 116 -64 623 l-7 451 127 0
c107 0 133 -3 170 -21 48 -22 183 -156 302 -299 38 -47 159 -191 266 -322 308
-370 420 -479 574 -556 123 -62 170 -68 476 -64 l178 2 -4 56 -4 57 -51 17
c-59 21 -58 21 -142 76 -58 39 -171 148 -284 274 -96 107 -243 269 -290 319
-64 68 -53 57 -170 191 -54 63 -139 156 -187 205 -48 50 -87 95 -88 100 0 6
27 16 60 22 213 43 453 195 562 356 87 128 123 242 122 387 0 138 -36 245
-121 366 -133 189 -359 309 -657 349 -99 14 -516 22 -527 11z m289 -132 c117
-24 195 -66 282 -154 126 -125 168 -232 177 -442 6 -139 -4 -217 -39 -308 -75
-192 -215 -293 -493 -355 -62 -14 -130 -18 -304 -19 l-224 -1 -3 30 c-2 16 -4
259 -6 540 -3 558 -2 574 53 633 65 69 142 90 337 91 94 1 169 -4 220 -15z
m-858 -128 c0 -173 18 -1144 25 -1346 2 -85 5 -299 6 -475 l0 -320 -30 -3
c-19 -2 -33 2 -36 10 -2 7 -9 308 -15 668 -5 360 -12 725 -15 810 -3 85 -7
298 -10 473 l-6 317 40 0 41 0 0 -134z m821 -1279 c19 -9 255 -266 368 -401
383 -457 473 -556 606 -663 44 -35 103 -76 130 -91 64 -33 42 -39 -68 -17 -96
19 -174 60 -279 144 -95 76 -166 152 -317 336 -199 244 -296 362 -305 370 -6
6 -26 28 -45 50 -88 103 -194 214 -235 244 -25 19 -44 37 -42 40 5 8 166 -3
187 -12z"/>
<path d="M9468 8353 c-29 -34 -275 -408 -343 -523 -37 -63 -78 -132 -91 -152
-13 -21 -24 -40 -24 -42 0 -3 -14 -29 -31 -58 -49 -82 -202 -392 -268 -540
-148 -336 -302 -780 -396 -1143 -62 -238 -74 -295 -66 -295 4 0 20 33 35 73
16 39 83 182 150 316 l121 244 70 32 c227 105 333 154 390 180 28 12 70 31 95
43 43 20 351 158 378 169 9 4 12 -54 13 -268 2 -446 7 -558 34 -718 29 -175
121 -631 129 -638 2 -3 19 24 37 58 62 125 177 269 326 409 l99 93 -14 46 c-8
25 -21 61 -28 78 -42 94 -189 557 -265 833 -97 351 -163 655 -225 1035 -42
259 -38 233 -71 532 -15 139 -31 253 -34 253 -3 0 -13 -8 -21 -17z m-69 -618
c2 -499 -39 -705 -156 -781 -26 -18 -107 -74 -180 -125 -73 -52 -178 -125
-234 -164 -56 -38 -111 -77 -122 -85 -20 -14 -20 -14 -13 5 5 11 15 47 23 80
28 118 132 406 209 579 92 204 233 477 385 740 l74 130 6 -60 c4 -32 7 -176 8
-319z"/>
<path d="M8150 8294 c-80 -35 -165 -72 -190 -83 -25 -11 -67 -30 -95 -42 -146
-63 -157 -69 -152 -87 3 -9 33 -96 66 -192 50 -144 161 -544 161 -579 0 -6
-120 -49 -267 -96 -148 -47 -337 -109 -420 -137 -84 -29 -155 -50 -157 -47 -6
6 -13 58 -32 229 -13 121 -17 256 -18 607 -1 249 -3 453 -6 453 -3 0 -18 -46
-34 -102 -16 -57 -42 -148 -58 -203 -79 -280 -145 -640 -173 -945 -3 -36 -13
-126 -23 -200 -18 -145 -23 -697 -9 -915 14 -205 29 -380 32 -384 2 -2 50 17
107 42 57 25 192 84 300 132 116 51 195 92 193 98 -2 7 -29 82 -59 167 -63
179 -134 447 -170 640 -51 277 -51 280 -5 261 13 -6 76 -22 139 -36 63 -15
153 -35 200 -46 47 -11 132 -31 190 -45 188 -44 345 -85 352 -92 4 -4 12 -88
19 -187 11 -172 7 -635 -8 -827 -3 -43 -3 -78 0 -78 14 0 152 495 193 695 39
191 87 531 113 805 26 268 23 822 -4 1049 -9 75 -19 188 -17 199 4 19 -14 14
-168 -54z"/>
<path d="M8072 4837 c-29 -31 -29 -77 1 -105 47 -45 127 -11 127 53 0 65 -84
99 -128 52z"/>
<path d="M12593 4832 c-131 -47 -198 -149 -196 -302 1 -132 55 -225 161 -277
51 -25 67 -28 162 -28 114 0 141 9 194 61 29 29 48 62 60 102 7 20 4 22 -37
22 -42 0 -44 -1 -56 -39 -29 -97 -160 -133 -240 -65 -48 40 -66 102 -66 229 0
172 40 246 140 261 85 12 164 -36 184 -114 5 -20 15 -28 35 -30 l27 -3 -3 77
-3 77 -55 20 c-81 28 -239 33 -307 9z"/>
<path d="M19805 4841 c-91 -25 -160 -84 -196 -164 -32 -74 -33 -210 0 -282 28
-64 73 -110 136 -142 39 -21 69 -27 141 -31 129 -7 191 14 265 87 47 48 58 66
74 123 45 167 -17 323 -154 390 -36 18 -66 23 -141 25 -52 1 -108 -2 -125 -6z
m182 -66 c14 -9 35 -38 46 -63 19 -41 22 -65 22 -177 0 -119 -2 -134 -25 -180
-62 -124 -211 -105 -251 32 -17 59 -18 241 -1 300 14 47 60 99 95 106 35 8 87
-1 114 -18z"/>
<path d="M7300 4815 c0 -22 4 -25 40 -25 l40 0 0 -255 0 -255 -40 0 c-36 0
-40 -2 -40 -25 l0 -25 265 0 265 0 0 75 0 75 -30 0 c-29 0 -30 -1 -30 -50 l0
-50 -120 0 -120 0 0 255 0 255 40 0 c36 0 40 3 40 25 l0 25 -155 0 -155 0 0
-25z"/>
<path d="M14660 4815 c0 -21 5 -25 29 -25 26 0 31 -5 45 -47 24 -77 102 -331
131 -426 l27 -88 55 3 55 3 62 200 c35 110 65 207 67 215 3 8 18 -26 33 -75
15 -50 45 -147 67 -217 l40 -128 54 0 54 0 36 118 c20 64 47 151 60 192 13 41
36 114 50 163 25 83 28 87 54 87 23 0 30 5 33 25 l5 25 -98 0 c-99 0 -99 0
-99 -25 0 -22 4 -25 35 -25 19 0 35 -3 35 -6 0 -14 -102 -339 -109 -346 -6 -7
-30 64 -106 315 l-26 88 -62 -3 -61 -3 -60 -197 c-33 -109 -63 -198 -66 -198
-5 0 -78 227 -107 333 -4 13 1 17 26 17 26 0 31 4 31 25 l0 25 -145 0 -145 0
0 -25z"/>
<path d="M15990 4818 c-6 -13 -57 -138 -114 -278 -96 -237 -105 -255 -130
-258 -20 -3 -26 -9 -26 -28 0 -24 1 -24 95 -24 95 0 95 0 95 25 0 22 -4 25
-35 25 -19 0 -35 3 -35 7 0 4 10 31 22 60 l22 53 111 0 112 0 26 -60 26 -60
-30 0 c-24 0 -29 -4 -29 -25 l0 -25 145 0 145 0 0 24 c0 20 -6 25 -32 28 -32
3 -32 3 -144 278 l-111 275 -52 3 c-45 3 -52 0 -61 -20z m58 -265 l40 -103
-89 0 c-49 0 -89 3 -89 8 0 20 84 212 90 205 4 -4 25 -54 48 -110z"/>
<path d="M16510 4765 l0 -75 30 0 c29 0 30 1 30 50 l0 50 80 0 80 0 0 -255 0
-255 -40 0 c-36 0 -40 -2 -40 -25 l0 -25 160 0 160 0 0 25 c0 23 -4 25 -40 25
l-40 0 0 255 0 255 80 0 80 0 0 -50 c0 -49 1 -50 30 -50 l30 0 0 75 0 75 -300
0 -300 0 0 -75z"/>
<path d="M17290 4815 c0 -22 4 -25 35 -25 l35 0 0 -255 0 -255 -35 0 c-31 0
-35 -3 -35 -25 l0 -25 275 0 275 0 0 70 0 70 -30 0 c-29 0 -30 -2 -30 -45 l0
-45 -131 0 -130 0 2 130 2 130 79 0 78 0 0 -40 c0 -38 2 -40 30 -40 l30 0 0
105 0 105 -30 0 c-28 0 -30 -2 -30 -40 l0 -40 -79 0 -79 0 1 98 2 97 123 3
122 3 0 -46 c0 -45 0 -45 35 -45 l35 0 0 70 0 70 -275 0 -275 0 0 -25z"/>
<path d="M18050 4815 c0 -22 4 -25 35 -25 l35 0 0 -255 0 -255 -35 0 c-31 0
-35 -3 -35 -25 l0 -25 155 0 155 0 0 25 c0 23 -4 25 -41 25 l-40 0 3 113 3
112 34 -2 c18 0 39 -7 46 -15 7 -7 41 -68 76 -135 l63 -123 103 0 103 0 0 25
c0 22 -5 25 -32 25 -32 0 -35 4 -88 108 -40 78 -64 113 -89 130 -22 14 -28 22
-17 22 27 0 94 38 110 63 48 75 19 169 -67 211 -50 25 -55 26 -264 26 l-213 0
0 -25z m373 -65 c21 -24 27 -40 27 -75 0 -65 -37 -104 -107 -112 -41 -4 -53
-3 -54 8 -6 60 -7 160 -3 188 l5 34 52 -6 c41 -5 58 -13 80 -37z"/>
<path d="M18870 4815 c0 -22 4 -25 35 -25 l35 0 0 -255 0 -255 -35 0 c-31 0
-35 -3 -35 -25 l0 -25 165 0 165 0 0 25 c0 23 -4 25 -45 25 l-45 0 0 130 0
130 70 0 70 0 0 -40 c0 -38 1 -40 33 -40 l32 0 0 105 1 105 -33 0 c-32 0 -33
-1 -33 -40 l0 -40 -70 0 -70 0 0 100 0 100 120 0 120 0 0 -45 c0 -43 1 -45 30
-45 l30 0 0 70 0 70 -270 0 -270 0 0 -25z"/>
<path d="M20440 4815 c0 -22 4 -25 35 -25 l35 0 0 -255 0 -255 -35 0 c-31 0
-35 -3 -35 -25 l0 -25 155 0 155 0 0 25 c0 22 -4 25 -35 25 l-35 0 -1 98 c-1
99 0 124 7 131 2 2 18 0 36 -5 30 -9 40 -23 101 -142 l68 -132 105 0 104 0 0
25 c0 22 -5 25 -32 25 -32 0 -35 4 -88 108 -39 75 -65 113 -87 128 l-32 22 30
6 c65 13 119 76 119 138 0 12 -9 41 -21 64 -15 33 -32 49 -72 68 -50 25 -55
26 -264 26 l-213 0 0 -25z m340 -43 c40 -20 60 -53 60 -102 0 -63 -56 -110
-130 -110 l-30 0 0 115 0 115 33 0 c17 0 48 -8 67 -18z"/>
<path d="M21260 4816 c0 -23 4 -26 35 -26 l35 0 0 -255 0 -255 -35 0 c-31 0
-35 -3 -35 -26 l0 -26 218 4 c214 3 218 4 274 31 107 52 152 133 152 272 1 79
-3 98 -27 147 -31 64 -70 101 -137 132 -40 19 -67 21 -262 24 l-218 4 0 -26z
m383 -53 c19 -11 42 -38 57 -68 22 -44 25 -63 25 -160 0 -97 -3 -116 -25 -160
-30 -60 -68 -84 -145 -92 l-55 -6 0 258 0 258 55 -6 c31 -3 70 -14 88 -24z"/>
<path d="M8545 4656 c-61 -23 -85 -57 -85 -119 1 -79 35 -111 150 -137 75 -17
100 -34 100 -69 0 -37 -20 -52 -73 -58 -58 -6 -109 21 -122 65 -7 24 -15 32
-32 32 -22 0 -23 -4 -23 -65 0 -62 1 -65 28 -72 15 -4 79 -8 142 -8 168 0 220
32 220 137 0 73 -45 112 -160 138 -72 16 -100 34 -100 65 0 83 188 66 190 -17
0 -12 8 -18 25 -18 24 0 25 3 25 54 0 52 -1 55 -32 66 -55 19 -207 23 -253 6z"/>
<path d="M9325 4658 c-11 -6 -32 -22 -47 -36 l-28 -26 0 32 0 32 -100 0 -100
0 0 -25 c0 -21 5 -25 30 -25 l30 0 0 -165 0 -165 -30 0 c-25 0 -30 -4 -30 -25
l0 -25 128 0 127 0 1 25 c2 21 -2 25 -27 25 l-29 0 0 108 c0 157 22 212 87
212 43 0 53 -33 53 -182 l0 -138 -25 0 c-20 0 -25 -5 -25 -25 l0 -25 125 0
125 0 0 25 c0 20 -5 25 -25 25 l-25 0 0 135 c0 131 1 137 25 160 28 28 66 32
89 9 13 -13 16 -42 16 -160 l0 -144 -25 0 c-20 0 -25 -5 -25 -25 l0 -25 130 0
130 0 0 25 c0 21 -5 25 -30 25 l-30 0 0 128 c0 70 -5 143 -10 163 -15 52 -59
90 -114 96 -62 7 -90 -2 -136 -43 -38 -34 -39 -35 -50 -14 -27 51 -131 78
-185 48z"/>
<path d="M10218 4660 c-52 -16 -98 -52 -125 -98 -23 -39 -27 -58 -27 -118 1
-59 5 -80 28 -118 36 -62 97 -97 180 -103 169 -14 276 72 276 222 0 142 -95
227 -252 224 -29 0 -65 -4 -80 -9z m137 -64 c29 -29 41 -108 31 -205 -8 -74
-25 -108 -60 -117 -36 -9 -64 4 -81 36 -21 40 -21 230 0 270 24 46 72 54 110
16z"/>
<path d="M11014 4656 c-17 -7 -40 -27 -52 -42 l-21 -29 -1 38 0 37 -105 0
-105 0 0 -25 c0 -22 4 -25 35 -25 l35 0 0 -165 0 -165 -30 0 c-25 0 -30 -4
-30 -25 l0 -25 140 0 140 0 0 25 c0 23 -4 25 -41 25 l-42 0 5 113 c3 79 10
123 22 149 32 66 117 77 138 18 7 -22 16 -30 34 -30 24 0 25 2 22 68 l-3 67
-55 2 c-30 2 -69 -3 -86 -11z"/>
<path d="M11445 4655 c-59 -21 -111 -84 -125 -152 -27 -126 32 -243 137 -272
59 -17 153 -13 198 8 38 17 95 72 95 91 0 5 3 15 6 24 5 13 -1 16 -30 16 -29
0 -37 -4 -42 -24 -11 -44 -50 -71 -105 -71 -64 0 -90 25 -97 94 l-5 51 147 0
146 0 0 30 c0 45 -37 133 -68 163 -57 55 -168 73 -257 42z m135 -53 c18 -14
24 -32 28 -75 l4 -57 -66 0 -66 0 0 46 c0 90 46 129 100 86z"/>
<path d="M13326 4655 c-57 -20 -87 -45 -116 -96 -20 -36 -25 -57 -25 -114 1
-145 88 -225 246 -225 147 0 239 86 239 225 0 102 -51 178 -139 210 -54 19
-153 19 -205 0z m149 -59 c17 -17 25 -39 30 -90 8 -69 -1 -169 -16 -198 -27
-51 -102 -46 -125 8 -17 41 -19 207 -3 253 18 53 75 66 114 27z"/>
<path d="M8000 4635 c0 -21 5 -25 30 -25 l30 0 0 -165 0 -165 -30 0 c-25 0
-30 -4 -30 -25 l0 -26 133 3 c128 3 132 4 135 26 3 19 -1 22 -32 22 l-36 0 0
190 0 190 -100 0 -100 0 0 -25z"/>
<path d="M13922 4350 c-49 -46 -14 -130 53 -130 40 0 75 36 75 76 0 63 -81 97
-128 54z"/>
</g>
</svg>
